<?xml version="1.0" encoding="UTF-8"?>
<svg id="Layer_1" data-name="Layer 1" xmlns="http://www.w3.org/2000/svg" viewBox="0 0 1000 500">
  <defs>
    <style>
      .cls-1 {
        fill: #00293a;
      }

      .cls-1, .cls-2, .cls-3 {
        stroke: #c22032;
        stroke-miterlimit: 10;
      }

      .cls-2 {
        fill: #fff;
      }

      .cls-3 {
        fill: #c22032;
      }
    </style>
  </defs>
  <polygon class="cls-1" points="913.57 412.55 913.59 326.56 129.38 326.56 85.57 412.55 913.57 412.55"/>
  <g>
    <path class="cls-3" d="m394.53,88.37h28.32c27.59,0,50.71,11.74,50.71,43.09,0,27.71-22.63,42.6-48.17,42.6h-30.86v-85.69Zm18.88,68.26h9.8c17.55,0,30.74-6.66,30.74-26.14,0-16.82-13.43-24.69-29.41-24.69h-11.13v50.83Z"/>
    <path class="cls-3" d="m487,88.37h33.15c17.55,0,32.32,6.05,32.32,26.02,0,11.97-6.41,21.3-18.52,23.47l21.79,36.19h-22.63l-17.91-34.25h-9.32v34.25h-18.88v-85.69Zm18.88,35.46h11.13c6.9,0,15.86-.24,15.86-9.56,0-8.59-7.75-9.92-14.65-9.92h-12.34v19.49Z"/>
    <rect class="cls-3" x="570.62" y="88.37" width="18.88" height="85.69"/>
    <polygon class="cls-3" points="601.23 88.37 622.78 88.37 643.95 144.53 644.19 144.53 665.74 88.37 685.95 88.37 650.61 174.06 635.48 174.06 601.23 88.37"/>
    <rect class="cls-3" x="697.68" y="88.37" width="18.89" height="85.69"/>
    <polygon class="cls-3" points="736.77 88.37 762.43 88.37 798.85 147.91 799.09 147.91 799.09 88.37 817.98 88.37 817.98 174.06 793.29 174.06 755.89 113.06 755.65 113.06 755.65 174.06 736.77 174.06 736.77 88.37"/>
    <path class="cls-3" d="m913.58,168c-11.13,5.81-23.35,8.23-35.94,8.23-26.75,0-46.23-17.55-46.23-45.02s19.48-45.02,46.23-45.02c13.56,0,25.53,3.02,34.13,11.01l-13.31,14.53c-5.08-5.33-11.25-8.11-20.82-8.11-16.09,0-26.62,11.62-26.62,27.59s10.53,27.59,26.62,27.59c8.23,0,14.28-2.3,17.79-4.23v-13.92h-15.36v-17.42h33.52v44.77Z"/>
    <polygon class="cls-1" points="394.61 194.66 468.63 194.66 468.63 217.1 418.92 217.1 418.92 239.53 464.89 239.53 464.89 261.97 418.92 261.97 418.92 304.97 394.61 304.97 394.61 194.66"/>
    <path class="cls-1" d="m543.58,191.86c34.43,0,59.52,22.59,59.52,57.96s-25.09,57.97-59.52,57.97-59.53-22.6-59.53-57.97,25.09-57.96,59.53-57.96m0,93.49c20.72,0,34.28-14.96,34.28-35.53s-13.56-35.53-34.28-35.53-34.28,14.96-34.28,35.53,13.55,35.53,34.28,35.53"/>
    <path class="cls-1" d="m620.39,194.66h42.69c22.59,0,41.6,7.8,41.6,33.5,0,15.43-8.26,27.43-23.84,30.23l28.05,46.59h-29.13l-23.07-44.09h-12v44.09h-24.31v-110.32Zm24.31,45.65h14.34c8.88,0,20.41-.32,20.41-12.3,0-11.07-9.97-12.78-18.85-12.78h-15.9v25.08Z"/>
    <path class="cls-1" d="m797.4,223.33c-4.83-5.76-11.85-9.04-20.88-9.04-18.38,0-31.95,14.96-31.95,35.53s13.56,35.53,31.17,35.53c9.81,0,17.76-4.37,22.75-11.84l20.25,15.12c-9.19,13.08-24.78,19.16-39.89,19.16-34.44,0-59.52-22.6-59.52-57.97s25.08-57.96,59.52-57.96c12.3,0,27.89,4.21,37.24,16.2l-18.7,15.27Z"/>
    <polygon class="cls-1" points="836.82 194.66 911.77 194.66 911.77 217.1 861.13 217.1 861.13 237.66 908.96 237.66 908.96 260.1 861.13 260.1 861.13 282.54 914.57 282.54 914.57 304.97 836.82 304.97 836.82 194.66"/>
    <polygon class="cls-3" points="371.9 174.06 371.9 88.37 250.09 88.37 250.04 88.44 207.09 174.06 371.9 174.06"/>
    <polygon class="cls-1" points="371.87 304.97 371.9 194.66 196.59 194.66 140.38 304.97 371.87 304.97"/>
    <path class="cls-1" d="m947.33,88.54c6.43,0,11.55,5.23,11.55,11.76s-5.12,11.82-11.61,11.82-11.66-5.17-11.66-11.82,5.23-11.76,11.66-11.76h.05Zm-.05,1.83c-5.17,0-9.41,4.44-9.41,9.93s4.23,9.98,9.46,9.98c5.22.05,9.41-4.39,9.41-9.93s-4.18-9.99-9.41-9.99h-.05Zm-2.2,16.78h-2.09v-13.12c1.1-.16,2.14-.31,3.71-.31,1.99,0,3.29.42,4.08.99.79.58,1.21,1.46,1.21,2.72,0,1.73-1.15,2.77-2.56,3.19v.11c1.15.21,1.93,1.25,2.2,3.19.31,2.04.63,2.82.84,3.24h-2.2c-.31-.42-.63-1.62-.89-3.35-.31-1.67-1.15-2.3-2.82-2.3h-1.46v5.65Zm0-7.27h1.52c1.73,0,3.19-.63,3.19-2.25,0-1.15-.84-2.3-3.19-2.3-.68,0-1.15.05-1.52.1v4.44Z"/>
  </g>
  <g>
    <g>
      <path class="cls-2" d="m394.81,348.44h28.5v8.64h-19.14v8.64h17.7v8.64h-17.7v16.56h-9.36v-42.48Z"/>
      <path class="cls-2" d="m427.39,348.44h9.36v33.84h17.34v8.64h-26.7v-42.48Z"/>
      <path class="cls-2" d="m458,348.44h28.86v8.64h-19.5v7.92h18.42v8.64h-18.42v8.64h20.58v8.64h-29.94v-42.48Z"/>
      <path class="cls-2" d="m490.69,348.44h28.86v8.64h-19.5v7.92h18.42v8.64h-18.42v8.64h20.58v8.64h-29.94v-42.48Z"/>
      <path class="cls-2" d="m535.04,356.72h-12.12v-8.28h33.6v8.28h-12.12v34.2h-9.36v-34.2Z"/>
    </g>
    <g>
      <path class="cls-2" d="m595.76,358.82c-.76-.96-1.79-1.67-3.09-2.13-1.3-.46-2.53-.69-3.69-.69-.68,0-1.38.08-2.1.24-.72.16-1.4.41-2.04.75-.64.34-1.16.79-1.56,1.35s-.6,1.24-.6,2.04c0,1.28.48,2.26,1.44,2.94.96.68,2.17,1.26,3.63,1.74,1.46.48,3.03.96,4.71,1.44,1.68.48,3.25,1.16,4.71,2.04,1.46.88,2.67,2.06,3.63,3.54.96,1.48,1.44,3.46,1.44,5.94s-.44,4.42-1.32,6.18c-.88,1.76-2.07,3.22-3.57,4.38-1.5,1.16-3.24,2.02-5.22,2.58-1.98.56-4.07.84-6.27.84-2.76,0-5.32-.42-7.68-1.26-2.36-.84-4.56-2.2-6.6-4.08l6.66-7.32c.96,1.28,2.17,2.27,3.63,2.97,1.46.7,2.97,1.05,4.53,1.05.76,0,1.53-.09,2.31-.27.78-.18,1.48-.45,2.1-.81s1.12-.82,1.5-1.38c.38-.56.57-1.22.57-1.98,0-1.28-.49-2.29-1.47-3.03s-2.21-1.37-3.69-1.89c-1.48-.52-3.08-1.04-4.8-1.56-1.72-.52-3.32-1.22-4.8-2.1-1.48-.88-2.71-2.04-3.69-3.48-.98-1.44-1.47-3.34-1.47-5.7s.45-4.28,1.35-6c.9-1.72,2.1-3.16,3.6-4.32,1.5-1.16,3.23-2.03,5.19-2.61,1.96-.58,3.98-.87,6.06-.87,2.4,0,4.72.34,6.96,1.02,2.24.68,4.26,1.82,6.06,3.42l-6.42,7.02Z"/>
      <path class="cls-2" d="m604.7,369.68c0-3.4.57-6.48,1.71-9.24,1.14-2.76,2.73-5.11,4.77-7.05,2.04-1.94,4.46-3.43,7.26-4.47s5.86-1.56,9.18-1.56,6.38.52,9.18,1.56c2.8,1.04,5.22,2.53,7.26,4.47,2.04,1.94,3.63,4.29,4.77,7.05,1.14,2.76,1.71,5.84,1.71,9.24s-.57,6.48-1.71,9.24c-1.14,2.76-2.73,5.11-4.77,7.05-2.04,1.94-4.46,3.43-7.26,4.47-2.8,1.04-5.86,1.56-9.18,1.56s-6.38-.52-9.18-1.56c-2.8-1.04-5.22-2.53-7.26-4.47-2.04-1.94-3.63-4.29-4.77-7.05-1.14-2.76-1.71-5.84-1.71-9.24Zm9.72,0c0,2,.31,3.83.93,5.49.62,1.66,1.51,3.1,2.67,4.32,1.16,1.22,2.55,2.17,4.17,2.85,1.62.68,3.43,1.02,5.43,1.02s3.81-.34,5.43-1.02c1.62-.68,3.01-1.63,4.17-2.85,1.16-1.22,2.05-2.66,2.67-4.32.62-1.66.93-3.49.93-5.49s-.31-3.78-.93-5.46c-.62-1.68-1.51-3.13-2.67-4.35-1.16-1.22-2.55-2.17-4.17-2.85-1.62-.68-3.43-1.02-5.43-1.02s-3.81.34-5.43,1.02c-1.62.68-3.01,1.63-4.17,2.85-1.16,1.22-2.05,2.67-2.67,4.35-.62,1.68-.93,3.5-.93,5.46Z"/>
      <path class="cls-2" d="m654.38,348.44h9.36v33.84h17.34v8.64h-26.7v-42.48Z"/>
      <path class="cls-2" d="m718.82,374.54c0,2.52-.38,4.84-1.14,6.96-.76,2.12-1.89,3.96-3.39,5.52-1.5,1.56-3.37,2.78-5.61,3.66s-4.82,1.32-7.74,1.32-5.56-.44-7.8-1.32c-2.24-.88-4.11-2.1-5.61-3.66-1.5-1.56-2.63-3.4-3.39-5.52-.76-2.12-1.14-4.44-1.14-6.96v-26.1h9.36v25.74c0,1.32.21,2.54.63,3.66.42,1.12,1.01,2.09,1.77,2.91.76.82,1.67,1.46,2.73,1.92,1.06.46,2.21.69,3.45.69s2.38-.23,3.42-.69c1.04-.46,1.94-1.1,2.7-1.92.76-.82,1.35-1.79,1.77-2.91.42-1.12.63-2.34.63-3.66v-25.74h9.36v26.1Z"/>
      <path class="cls-2" d="m733.88,356.72h-12.12v-8.28h33.6v8.28h-12.12v34.2h-9.36v-34.2Z"/>
      <path class="cls-2" d="m758.06,348.44h9.36v42.48h-9.36v-42.48Z"/>
      <path class="cls-2" d="m770.96,369.68c0-3.4.57-6.48,1.71-9.24,1.14-2.76,2.73-5.11,4.77-7.05,2.04-1.94,4.46-3.43,7.26-4.47s5.86-1.56,9.18-1.56,6.38.52,9.18,1.56c2.8,1.04,5.22,2.53,7.26,4.47,2.04,1.94,3.63,4.29,4.77,7.05,1.14,2.76,1.71,5.84,1.71,9.24s-.57,6.48-1.71,9.24c-1.14,2.76-2.73,5.11-4.77,7.05-2.04,1.94-4.46,3.43-7.26,4.47-2.8,1.04-5.86,1.56-9.18,1.56s-6.38-.52-9.18-1.56c-2.8-1.04-5.22-2.53-7.26-4.47-2.04-1.94-3.63-4.29-4.77-7.05-1.14-2.76-1.71-5.84-1.71-9.24Zm9.72,0c0,2,.31,3.83.93,5.49.62,1.66,1.51,3.1,2.67,4.32,1.16,1.22,2.55,2.17,4.17,2.85,1.62.68,3.43,1.02,5.43,1.02s3.81-.34,5.43-1.02c1.62-.68,3.01-1.63,4.17-2.85,1.16-1.22,2.05-2.66,2.67-4.32.62-1.66.93-3.49.93-5.49s-.31-3.78-.93-5.46c-.62-1.68-1.51-3.13-2.67-4.35-1.16-1.22-2.55-2.17-4.17-2.85-1.62-.68-3.43-1.02-5.43-1.02s-3.81.34-5.43,1.02c-1.62.68-3.01,1.63-4.17,2.85-1.16,1.22-2.05,2.67-2.67,4.35-.62,1.68-.93,3.5-.93,5.46Z"/>
      <path class="cls-2" d="m819.68,348.44h12.72l18.06,29.52h.12v-29.52h9.36v42.48h-12.24l-18.54-30.24h-.12v30.24h-9.36v-42.48Z"/>
      <path class="cls-2" d="m887.97,358.82c-.76-.96-1.79-1.67-3.09-2.13-1.3-.46-2.53-.69-3.69-.69-.68,0-1.38.08-2.1.24-.72.16-1.4.41-2.04.75-.64.34-1.16.79-1.56,1.35s-.6,1.24-.6,2.04c0,1.28.48,2.26,1.44,2.94.96.68,2.17,1.26,3.63,1.74,1.46.48,3.03.96,4.71,1.44,1.68.48,3.25,1.16,4.71,2.04,1.46.88,2.67,2.06,3.63,3.54.96,1.48,1.44,3.46,1.44,5.94s-.44,4.42-1.32,6.18c-.88,1.76-2.07,3.22-3.57,4.38-1.5,1.16-3.24,2.02-5.22,2.58-1.98.56-4.07.84-6.27.84-2.76,0-5.32-.42-7.68-1.26-2.36-.84-4.56-2.2-6.6-4.08l6.66-7.32c.96,1.28,2.17,2.27,3.63,2.97,1.46.7,2.97,1.05,4.53,1.05.76,0,1.53-.09,2.31-.27.78-.18,1.48-.45,2.1-.81.62-.36,1.12-.82,1.5-1.38s.57-1.22.57-1.98c0-1.28-.49-2.29-1.47-3.03-.98-.74-2.21-1.37-3.69-1.89-1.48-.52-3.08-1.04-4.8-1.56-1.72-.52-3.32-1.22-4.8-2.1-1.48-.88-2.71-2.04-3.69-3.48-.98-1.44-1.47-3.34-1.47-5.7s.45-4.28,1.35-6c.9-1.72,2.1-3.16,3.6-4.32,1.5-1.16,3.23-2.03,5.19-2.61,1.96-.58,3.98-.87,6.06-.87,2.4,0,4.72.34,6.96,1.02,2.24.68,4.26,1.82,6.06,3.42l-6.42,7.02Z"/>
    </g>
  </g>
</svg>